<?xml version="1.0" encoding="UTF-8"?>
<svg id="coralBanner1" xmlns="http://www.w3.org/2000/svg" xmlns:xlink="http://www.w3.org/1999/xlink" viewBox="0 0 392.26 323.23">
  <defs>
    <style>
      .cls-1, .cls-2, .cls-3, .cls-4, .cls-5, .cls-6, .cls-7, .cls-8, .cls-9, .cls-10, .cls-11, .cls-12, .cls-13, .cls-14, .cls-15, .cls-16, .cls-17, .cls-18, .cls-19, .cls-20, .cls-21 {
        stroke: #570060;
      }

      .cls-1, .cls-2, .cls-3, .cls-4, .cls-5, .cls-6, .cls-7, .cls-8, .cls-10, .cls-11, .cls-12, .cls-13, .cls-14, .cls-15, .cls-16, .cls-17, .cls-18, .cls-19, .cls-20, .cls-21 {
        fill: none;
      }

      .cls-1, .cls-2, .cls-3, .cls-4, .cls-5, .cls-7, .cls-9, .cls-10, .cls-11, .cls-12, .cls-13, .cls-14, .cls-15, .cls-16, .cls-17, .cls-18, .cls-19, .cls-20, .cls-21 {
        stroke-linecap: round;
        stroke-linejoin: round;
      }

      .cls-22 {
        clip-path: url(#clippath);
      }

      .cls-23, .cls-9 {
        fill: #ffebde;
      }

      .cls-2 {
        stroke-width: .26px;
      }

      .cls-3 {
        stroke-width: .26px;
      }

      .cls-4 {
        stroke-width: .26px;
      }

      .cls-5 {
        stroke-width: .26px;
      }

      .cls-6 {
        stroke-width: 2px;
      }

      .cls-6, .cls-8 {
        stroke-miterlimit: 10;
      }

      .cls-7 {
        stroke-width: .24px;
      }

      .cls-9, .cls-20 {
        stroke-width: 1.73px;
      }

      .cls-10 {
        stroke-width: .25px;
      }

      .cls-11 {
        stroke-width: .25px;
      }

      .cls-12 {
        stroke-width: .25px;
      }

      .cls-13 {
        stroke-width: .23px;
      }

      .cls-14 {
        stroke-width: .24px;
      }

      .cls-15 {
        stroke-width: 2.19px;
      }

      .cls-16 {
        stroke-width: 1.31px;
      }

      .cls-17 {
        stroke-width: .66px;
      }

      .cls-18 {
        stroke-width: .21px;
      }

      .cls-19 {
        stroke-width: .22px;
      }

      .cls-21 {
        stroke-width: .41px;
      }
    </style>
    <clipPath id="clippath">
      <path class="cls-9" d="M112.26,233.81c-5.57,24.99,2.23,52.55,20.06,70.92,1.78-13.52,8.81-26.28,19.28-35.02l46.19,37.74c-12.75-14.17-22.27-31.24-27.62-49.54,10.5,1.42,21.47,3.01,30.08,9.17,11.69,8.37,16.49,23.17,20.58,36.95l2.05-17.57c5.17,14.62,15.28,27.45,28.28,35.89-1.35-7.67-2.69-15.34-4.04-23.01,14.95,16.11,37.56,21.04,57.83,12.53,20.27-8.51,34.35-38.12,33.32-60.07-.91-19.43-11.2-28.45-22.23-44.47,17.9,14.64,33.42,38.83,46.69,51.77,17.17-12.35,26.07-38.48,27.04-59.61.83-18.05,2.03-30.52,1.5-48.28-13.45-.83-24.96,8.71-36.15,16.22-5.64,3.79-11.96,8.98-18.52,8.58-35.01-2.12-13.95-3.46-6.27-5.82,5.97-1.83,22.14-17.22,26.01-28.42,2.4-6.93,2.22-14.44,2.01-21.77-.55-19.54-1.79-40.88-14.93-55.35-6.31-6.94-14.74-11.52-23.04-15.9-25.73-13.57-51.74-29.54-80.7-32.37-30.72-3-61.46,4.88-88.11,20.46-26.65,15.58-50.79,35.14-70.8,58.65-7.49,8.81-16.99,21.81-26.76,27.99-15.07,9.53-31.44,12.76-49.1,13.28-1.25.04-1.87,1.51-1.04,2.44,3.44,3.82-2.94,10.32-3.01,11.51-.1,1.63.81,2.62,1.93,3.12,28.23,12.49,73.55,53.72,109.46,79.94Z"/>
    </clipPath>
  </defs>
  <g>
    <path class="cls-23" d="M112.26,233.81c-5.57,24.99,2.23,52.55,20.06,70.92,1.78-13.52,8.81-26.28,19.28-35.02l46.19,37.74c-12.75-14.17-22.27-31.24-27.62-49.54,10.5,1.42,21.47,3.01,30.08,9.17,11.69,8.37,16.49,23.17,20.58,36.95l2.05-17.57c5.17,14.62,15.28,27.45,28.28,35.89-1.35-7.67-2.69-15.34-4.04-23.01,14.95,16.11,37.56,21.04,57.83,12.53,20.27-8.51,34.35-38.12,33.32-60.07-.91-19.43-11.2-28.45-22.23-44.47,17.9,14.64,33.42,38.83,46.69,51.77,17.17-12.35,26.07-38.48,27.04-59.61.83-18.05,2.03-30.52,1.5-48.28-13.45-.83-24.96,8.71-36.15,16.22-5.64,3.79-11.96,8.98-18.52,8.58-35.01-2.12-13.95-3.46-6.27-5.82,5.97-1.83,22.14-17.22,26.01-28.42,2.4-6.93,2.22-14.44,2.01-21.77-.55-19.54-1.79-40.88-14.93-55.35-6.31-6.94-14.74-11.52-23.04-15.9-25.73-13.57-51.74-29.54-80.7-32.37-30.72-3-61.46,4.88-88.11,20.46-26.65,15.58-50.79,35.14-70.8,58.65-7.49,8.81-16.99,21.81-26.76,27.99-15.07,9.53-31.44,12.76-49.1,13.28-1.25.04-1.87,1.51-1.04,2.44,3.44,3.82-2.94,10.32-3.01,11.51-.1,1.63.81,2.62,1.93,3.12,28.23,12.49,73.55,53.72,109.46,79.94Z"/>
    <g class="cls-22">
      <path class="cls-4" d="M97.79,80.54c16.48-5.89,40.6-16.9,54.99-26.45,5.43-3.6,10.71-7.47,16.69-10.2,6.51-2.98,13.65-4.52,20.76-5.79,16.73-2.98,33.69-4.58,50.63-6.08,8.27-.73,16.56-1.45,24.85-1.27,3.5.08,7,.31,10.48-.06,7.64-.83,14.55-4.51,21.61-7.4,17.46-7.13,36.6-9.58,55.44-11.95"/>
      <path class="cls-4" d="M96.26,87.84c16.93-5.93,42.06-18.91,56.86-28.5,5.58-3.62,11.01-7.49,17.15-10.24,6.69-2.99,14.02-4.55,21.32-5.84,17.18-3.02,34.59-4.65,51.98-6.2,8.49-.75,17-1.49,25.51-1.32,3.59.07,7.19.3,10.76-.09,7.84-.84,14.94-4.54,22.2-7.45,17.93-7.18,37.58-9.67,56.92-12.08"/>
      <path class="cls-4" d="M88.99,95.06c17.4-5.97,49.37-20.15,64.58-29.78,5.74-3.63,11.33-7.52,17.64-10.29,6.88-3.01,14.41-4.59,21.91-5.89,17.65-3.06,35.53-4.73,53.39-6.32,8.72-.77,17.46-1.53,26.2-1.38,3.68.06,7.38.28,11.05-.11,8.06-.86,15.36-4.58,22.81-7.5,18.43-7.22,38.61-9.76,58.49-12.22"/>
      <path class="cls-4" d="M86.34,101.12c17.64-4.17,50.48-18.68,66.13-28.34,5.9-3.64,11.66-7.55,18.15-10.33,7.07-3.03,14.81-4.62,22.52-5.94,18.14-3.11,36.52-4.82,54.88-6.45,8.96-.79,17.95-1.57,26.92-1.45,3.79.05,7.58.26,11.35-.14,8.28-.88,15.79-4.62,23.46-7.55,18.96-7.26,39.7-9.85,60.13-12.36"/>
      <path class="cls-4" d="M79.97,107.38c20.53-1.25,54.94-18.79,70.77-28.47,5.97-3.65,11.78-7.56,18.34-10.35,7.15-3.03,14.97-4.64,22.76-5.96,18.33-3.12,36.9-4.85,55.44-6.5,9.05-.8,18.13-1.59,27.2-1.47,3.82.05,7.66.26,11.47-.15,8.37-.89,15.96-4.63,23.71-7.58,19.16-7.28,40.11-9.89,60.75-12.41"/>
      <path class="cls-4" d="M75.26,113.28c22.82.67,58-17.51,73.91-27.2,6-3.65,11.84-7.57,18.44-10.35,7.19-3.04,15.05-4.64,22.88-5.97,18.42-3.13,37.09-4.87,55.72-6.52,9.1-.81,18.22-1.59,27.34-1.48,3.84.05,7.7.25,11.53-.15,8.41-.89,16.04-4.64,23.83-7.59,19.26-7.29,40.32-9.9,61.06-12.44"/>
      <path class="cls-4" d="M70.53,118.74c30.4,2.66,62.68-15.22,78.59-24.91,6-3.65,11.84-7.57,18.44-10.35,7.19-3.04,15.05-4.64,22.88-5.97,18.42-3.13,37.09-4.87,55.72-6.52,9.1-.81,18.22-1.59,27.34-1.48,3.84.05,7.7.25,11.53-.15,8.41-.89,16.04-4.64,23.83-7.59,19.26-7.29,40.32-9.9,61.06-12.44"/>
      <path class="cls-4" d="M368.56,55.06c-24.55,5.58-49.1,11.16-73.65,16.74-6.12,1.39-12.24,2.78-18.47,3.57-20.77,2.63-40.45,1.86-62.81,6.44"/>
      <path class="cls-4" d="M354.98,91.95c-10.61,2.08-61.13,4.91-71.75,2.88-7.92-1.52-15.58-4.16-23.5-5.7-13.18-2.57-26.76-2.04-40.17-1.25-7.44.44-14.9.96-22.17,2.59-17.38,3.89-32.68,13.81-48.06,22.8s-31.96,17.39-49.77,17.7"/>
      <path class="cls-4" d="M357.11,104.31c-13.94.12-67.61-1.25-81.41-3.17-19.51-2.71-39.15-7.5-58.66-4.8-20.6,2.85-39.04,13.76-57.55,23.24-18.52,9.48-38.9,17.89-59.52,15.15"/>
      <path class="cls-4" d="M357.96,118.48c-9.7-4.82-61.61-8.87-72.44-9.19-6.8-.2-13.56-1.1-20.34-1.75-31.42-3.01-66.62-.24-97.17,7.68"/>
      <path class="cls-4" d="M128.74,132.37c14.27.89,28.27-3.5,42.1-7.15,25.05-6.62,50.69-10.96,76.52-12.94,15.85-1.22,36.52,5.18,52.01,8.77,20.43,4.74,25.04,3.27,58.06,8.89"/>
      <path class="cls-3" d="M355.96,141.6c-17.05-.66-45.99-.14-61.95-6.26-4.49-1.73-8.89-3.7-13.36-5.48-29.68-11.78-68.19-14.23-99.3-7.33"/>
      <path class="cls-2" d="M348.34,154.24c-8.73-.83-21.53.58-30.28.04-17.06-1.06-32.68-9.46-48.82-15.16-38.68-13.65-122.87-5.03-142.2-6.47"/>
      <path class="cls-4" d="M99.18,126.75c11.41-2.61,22.62-6.12,33.49-10.47,7.32-2.93,14.52-6.26,21.14-10.55,5.65-3.66,10.86-7.98,16.62-11.47,17.96-10.87,39.82-12.2,60.7-14.36,18.35-1.9,44.87,8.23,47.91,9.09,2.7.76,5.57.61,8.37.41,27.61-1.96,54.96-7.52,81.15-16.48"/>
      <path class="cls-4" d="M344.55,161.26c-12.73,1.24-25.87.52-38.31-2.43-7.48-1.77-16.81-5.86-24.03-8.51-15.55-5.69-29.55-5.87-45.97-8.02-19.76-2.58-39.67-3.94-59.6-4.09-6.24-.05-12.48.03-18.71.46-19.56,1.36-39.2,6.29-58.54,3.09"/>
      <path class="cls-4" d="M312.72,160.39c-19.2-4.28-49.89-8.46-69.54-9.46-7.37-.38-14.77-.29-22.12-.99-9.25-.88-18.34-2.99-27.58-4.02-26.11-2.9-67.53,2.29-93.01-4.08"/>
      <path class="cls-4" d="M97.17,147.96c27.97,6.12,56.7,7.84,85.29,9.55,22.28,1.33,44.55,2.65,66.83,3.98,12.72.76,25.44,1.52,38.16,2.27,12.58.75,25.19,1.5,37.79,1.19,6.39-.16,12.76-.59,19.14-.97"/>
      <path class="cls-4" d="M346.41,173.29c-37.73-6.98-76.85-1.18-114.74-7.25-9.78-1.57-19.44-3.92-28.84-7.04"/>
      <path class="cls-4" d="M92.9,152.42c15.14,5.17,33.34,7.52,49.2,9.7,22.72,3.11,45.77,3.07,68.55,5.71,17.87,2.07,35.55,5.8,53.49,7.13,9.49.7,19.02.74,28.54.77,18.06.06,15.16-.27,33.21-.21"/>
      <path class="cls-4" d="M330.44,183.7c-20.7,1.58-4.07.53-24.78,1.9-10.64.7-21.37,1.35-31.91-.28-5.82-.9-11.52-2.49-17.31-3.55-25.02-4.59-51.24.68-75.98-5.25-19.36-4.64-62.63-18.01-82.02-27.98"/>
      <path class="cls-5" d="M330.63,190.01c-19.4,1.46-24.71,2.87-44.12,4.13-9.97.65-20.03,1.23-29.92-.45-5.46-.93-10.81-2.55-16.25-3.64-23.48-4.72-48.04.41-71.26-5.66-18.18-4.75-66.01-28.67-83.9-34.58"/>
      <path class="cls-11" d="M329.63,197.8c-19.02,1.43-27.42,3.21-46.45,4.44-9.77.63-18.05,2.24-27.74.54-5.36-.94-10.6-2.56-15.94-3.67-23.03-4.76-47.1.33-69.87-5.78-17.83-4.78-82.37-35.82-99.92-41.75"/>
      <path class="cls-12" d="M315.47,206.75c-18.34,1.37-18.69,2.27-37.05,3.44-9.42.6-18.94,1.14-28.29-.59-5.17-.96-10.24-2.6-15.39-3.71-22.23-4.83-45.43.18-67.42-5.99-17.21-4.83-81.44-34.61-98.38-40.6"/>
      <path class="cls-14" d="M318.07,212.33c-17.8,1.32-25.53,2.35-43.34,3.47-9.14.57-86.49-4.35-107.85-10.57-16.72-4.87-80.23-30.77-96.69-36.79"/>
      <path class="cls-7" d="M323.55,217.94c-17.02,1.26-36.4,2.96-53.43,4.01-8.75.54-17.58,1.02-26.28-.77-4.81-.99-57.52-1.22-76.95-10.21-8.44-3.9-53.74-23.2-98.22-33.18"/>
      <path class="cls-13" d="M328.31,225.34c-15.3,1.11-54.93,4.16-70.25,5.06-7.86.46-76.32-8.23-94.78-14.7-14.45-5.07-39.59-16.3-71.63-25.7"/>
      <path class="cls-19" d="M332.83,231.87c-14.4,1.03-45.93,6.23-60.34,7.05-7.4.42-78.73-2.84-106.55-14.91-13.36-5.79-61.27-27.28-74.71-33.56"/>
    </g>
    <path class="cls-20" d="M112.26,233.81c-5.57,24.99,2.23,52.55,20.06,70.92,1.78-13.52,8.81-26.28,19.28-35.02l46.19,37.74c-12.75-14.17-22.27-31.24-27.62-49.54,10.5,1.42,21.47,3.01,30.08,9.17,11.69,8.37,16.49,23.17,20.58,36.95l2.05-17.57c5.17,14.62,15.28,27.45,28.28,35.89-1.35-7.67-2.69-15.34-4.04-23.01,14.95,16.11,37.56,21.04,57.83,12.53,20.27-8.51,34.35-38.12,33.32-60.07-.91-19.43-11.2-28.45-22.23-44.47,17.9,14.64,33.42,38.83,46.69,51.77,17.17-12.35,26.07-38.48,27.04-59.61.83-18.05,2.03-30.52,1.5-48.28-13.45-.83-24.96,8.71-36.15,16.22-5.64,3.79-11.96,8.98-18.52,8.58-35.01-2.12-13.95-3.46-6.27-5.82,5.97-1.83,22.14-17.22,26.01-28.42,2.4-6.93,2.22-14.44,2.01-21.77-.55-19.54-1.79-40.88-14.93-55.35-6.31-6.94-14.74-11.52-23.04-15.9-25.73-13.57-51.74-29.54-80.7-32.37-30.72-3-61.46,4.88-88.11,20.46-26.65,15.58-50.79,35.14-70.8,58.65-7.49,8.81-16.99,21.81-26.76,27.99-15.07,9.53-31.44,12.76-49.1,13.28-1.25.04-1.87,1.51-1.04,2.44,3.44,3.82-2.94,10.32-3.01,11.51-.1,1.63.81,2.62,1.93,3.12,28.23,12.49,73.55,53.72,109.46,79.94Z"/>
  </g>
  <path class="cls-1" d="M112.26,233.81c-5.57,24.99,2.23,52.55,20.06,70.92,1.78-13.52,8.81-26.28,19.28-35.02l46.19,37.74c-12.75-14.17-22.27-31.24-27.62-49.54,10.5,1.42,21.47,3.01,30.08,9.17,11.69,8.37,16.49,23.17,20.58,36.95l2.05-17.57c5.17,14.62,15.28,27.45,28.28,35.89-1.35-7.67-2.69-15.34-4.04-23.01,14.95,16.11,37.56,21.04,57.83,12.53,20.27-8.51,34.35-38.12,33.32-60.07-.91-19.43-11.2-28.45-22.23-44.47,17.9,14.64,33.42,38.83,46.69,51.77,17.17-12.35,26.07-38.48,27.04-59.61.83-18.05,2.03-30.52,1.5-48.28-13.45-.83-24.96,8.71-36.15,16.22-5.64,3.79-11.96,8.98-18.52,8.58-35.01-2.12-13.95-3.46-6.27-5.82,5.97-1.83,22.14-17.22,26.01-28.42,2.4-6.93,2.22-14.44,2.01-21.77-.55-19.54-1.79-40.88-14.93-55.35-6.31-6.94-14.74-11.52-23.04-15.9-25.73-13.57-51.74-29.54-80.7-32.37-30.72-3-61.46,4.88-88.11,20.46-26.65,15.58-50.79,35.14-70.8,58.65-7.49,8.81-16.99,21.81-26.76,27.99-15.07,9.53-31.44,12.76-49.1,13.28-1.25.04-1.87,1.51-1.04,2.44,3.44,3.82,1.84,10.82-.79,9.95-1.13-.38-2.14.37-2.22,1.56-.1,1.63.81,2.62,1.93,3.12,28.23,12.49,73.55,53.72,109.46,79.94Z"/>
  <path class="cls-16" d="M269.78,23.74c12.98,9.35,26.47,19.3,33.44,33.69.55,1.13,1.06,2.4.7,3.6-.31,1.06-1.23,1.81-1.96,2.65-2.07,2.41-2.62,5.75-2.8,8.92-.86,14.98,4.69,30.21,1.18,44.8-2.07,8.6-7.13,16.17-10.12,24.5-1.92,5.34-2.97,10.95-4.01,16.53-1.31,6.99-2.62,13.98-3.92,20.97-1.85,9.9-3.71,19.82-4.27,29.87-.35,6.39-.19,12.88-1.76,19.08-1.12,4.42-3.09,8.57-4.88,12.76-2.72,6.36-5.06,12.88-7.01,19.52-1.23,4.2-2.4,8.62-5.38,11.82-5,5.38-13.36,5.62-20.66,4.79-14.5-1.65-28.69-6.01-41.61-12.79"/>
  <path class="cls-17" d="M304.59,41.01c-.18-1.44-.36-2.89-.53-4.33-4.4.49-2.64-.99-5.08-4.11-4.7.1-8.85-1.71-7.95-3.96-.57-1.82-7.33-1.52-7.9-3.35-1.84.07-4.36-.47-6.2-.39-.62-1.53-1.22-1.58-.41-3.08-2.75-.73-5.73-.84-8.58-.31.73-1.24.86-2.73.35-4.02-3.19-.18-6.45.29-9.44,1.37.73-1.98,1.46-3.95,2.19-5.93-5.04.7-10.08,1.41-15.12,2.11.49-2.18,1.59-4.27,3.17-6.04-5.3.21-10.56,1.74-14.98,4.35-.63-3.49,1.24-7.28,4.63-9.37-8.2.34-16.29,3.43-22.18,8.49.23-4.82,3.51-9.53,8.37-12.02-12.81,1.11-25.02,7.46-32.26,16.77,2.77-6.1,6.7-11.82,11.59-16.86-12.88,3.51-24.18,11.46-30.79,21.67,1.19-4.71,2.38-9.43,3.56-14.14-8.74,4.88-15.9,11.89-20.41,19.96-.59-4.95-1.19-9.89-1.78-14.84-4.61,6.06-7.22,13.21-7.46,20.37-3.65-3.42-6.74-7.29-9.15-11.45-.41,7.24.33,14.51,2.17,21.53,23.22-16.92,52.06-26.09,82.07-26.04,30.01.05,59.98,6.62,82.11,23.61Z"/>
  <path class="cls-1" d="M88.74,136.68c-2.05,6.2-1.12,4.83-7.37,6.87-4.08,1.33-7.53-.74-7.98-5.99-.45-5.25.17-7.63,6.9-8.22s10.1,2.33,8.45,7.33Z"/>
  <path class="cls-8" d="M291.79,278.9c.06,1.73-.96,2.81-3.22,3.08-2.33.28-2.75-.38-2.91-2.2s.86-3.23,3.19-3.43,2.87.72,2.94,2.55Z"/>
  <path class="cls-1" d="M98.48,134.07c.34,9.56-5.29,15.53-17.84,17.04-12.89,1.55-15.2-2.08-16.07-12.17-.87-10.09,4.73-17.85,17.67-18.97,12.94-1.12,15.88,3.97,16.24,14.1Z"/>
  <path class="cls-1" d="M94,90.35c-2.58,4.08-6.08,7.47-9.37,11-5.32,5.72-10.15,11.9-14.41,18.46-4.17,6.42-8.62,11.39-6.58,18.78.87,3.16,3.44,8.65,4.44,11.77.83,2.55,1.05,5.26,1.2,7.94.41,7.44.25,14.91-.47,22.33-.41,4.21-.99,8.5-.13,12.64.86,4.14,3.52,8.21,7.58,9.41,3.96,1.18,8.19-.59,11.7-2.76,1.87-1.16,1.88-6.65,3.01-8.55,1.76-2.95,1.89-11.65,2.2-15.07,3.81-41.91,20.23-70.42,19.09-111.11.02.69-12.81,9.6-14.04,12.63-.75,1.84-.64,1.52-.84,3.5-.31,3.2-1.68,6.34-3.38,9.03Z"/>
  <path class="cls-15" d="M112.12,233.34c3.3-.49,6.64-.68,9.97-.58-.3-1.35-.59-2.71-.89-4.06,2.59,1.27,5.15,2.61,7.71,3.95,12.74,6.67,25.47,13.33,38.21,20,1.1.58,1.24.07,1.92,1.11s1.79,3.15.77,3.87"/>
  <path class="cls-1" d="M121.75,233.35c5.87,5.78,21.75,28.75,29.38,35.97"/>
  <path class="cls-16" d="M316.03,207.34c3.07,1.51,13.14-5.68,13.66-9.06,2.8-18.19-1.09-21.73-12.61-24.29-12.86-2.86-27.57,20.33-1.05,33.35Z"/>
  <path class="cls-1" d="M139.15,167.48c9.05-6.27,18.1-12.54,27.16-18.81,2.64-1.83,5.5-3.73,8.71-3.77-2.72,3.77-5.46,7.57-7.49,11.76-2.61,5.4-4.13,11.56-8.36,15.81-2.08,2.09-4.97,4.09-4.9,7.04.04,1.71,1.13,3.2,2.09,4.62,2.14,3.17,3.91,6.88,3.48,10.68s-3.81,7.45-7.6,6.95c.58,3.36-3.22,6.62-6.45,5.54.41-6.15-2.79-11.95-6.33-17-2.73-3.89-6.57-7.98-8.14-12.55-2.01-5.84,3.25-7.09,7.84-10.27Z"/>
  <g>
    <path class="cls-18" d="M353.2,169.67c6.93-6.11,14.1-12.59,23.12-15.05-1.71.11-3.31,1.26-3.91,2.81,2.27-.51,4.54-1.03,6.81-1.54-13.1,4.49-23.34,14.32-34.41,22.45-3.67,2.69-9.64,6.78-14.34,5.3,8.92-3.05,15.77-7.83,22.74-13.98Z"/>
    <path class="cls-21" d="M354.98,174.85c7.58-5.35,15.44-11.03,24.67-12.52-1.71-.07-3.43.91-4.21,2.39,2.31-.27,4.62-.54,6.93-.81-13.52,3.08-24.8,11.78-36.73,18.69-3.95,2.29-10.34,5.72-14.84,3.76,9.2-2.09,16.55-6.12,24.17-11.5Z"/>
    <path class="cls-21" d="M356.4,179.23c8.03-4.7,16.37-9.7,25.7-10.4-1.7-.22-3.5.61-4.4,2.02,2.32-.08,4.65-.15,6.97-.23-13.73,1.93-25.76,9.65-38.26,15.54-4.14,1.95-10.81,4.83-15.11,2.49,9.35-1.31,17.02-4.7,25.1-9.43Z"/>
    <path class="cls-18" d="M357.8,184c8.46-3.92,17.26-8.12,26.6-7.95-1.66-.38-3.54.28-4.58,1.6,2.32.14,4.64.29,6.95.43-13.85.63-26.59,7.19-39.61,11.88-4.31,1.55-11.24,3.8-15.27,1.06,9.43-.43,17.4-3.08,25.91-7.03Z"/>
    <path class="cls-18" d="M357.93,189.5c8.85-2.99,18.07-6.22,27.32-5.04-1.61-.55-3.55-.1-4.73,1.1,2.28.39,4.57.78,6.85,1.18-13.81-.87-27.22,4.29-40.69,7.56-4.46,1.08-11.6,2.57-15.28-.59,9.4.59,17.63-1.19,26.53-4.2Z"/>
    <path class="cls-18" d="M358.13,193.83c9.09-2.21,18.56-4.63,27.66-2.65-1.55-.69-3.52-.41-4.81.68,2.24.59,4.47,1.18,6.71,1.77-13.66-2.07-27.48,1.91-41.19,3.99-4.54.69-11.78,1.55-15.15-1.92,9.3,1.41,17.65.34,26.79-1.88Z"/>
    <path class="cls-18" d="M357.44,199.66c9.31-.88,19.04-1.9,27.71,1.37-1.42-.91-3.41-.92-4.86-.02,2.11.91,4.23,1.81,6.34,2.72-13.16-4.02-27.42-2.08-41.27-2-4.59.03-11.87-.17-14.65-4.08,8.96,2.74,17.36,2.89,26.73,2.01Z"/>
    <path class="cls-18" d="M356.01,203.55c9.35-.17,19.12-.46,27.48,3.46-1.34-1.01-3.32-1.17-4.84-.38,2.03,1.06,4.06,2.13,6.09,3.19-12.78-5.01-27.14-4.15-40.95-5.11-4.57-.32-11.81-1.06-14.26-5.18,8.7,3.41,17.06,4.2,26.46,4.02Z"/>
    <path class="cls-18" d="M353.8,209.65c9.19,1.51,18.83,2.99,26.26,8.36-1.12-1.24-3.03-1.75-4.67-1.25,1.78,1.41,3.57,2.83,5.35,4.24-11.55-7.23-25.79-8.97-39.14-12.4-4.42-1.14-11.36-3.17-12.96-7.67,7.86,4.92,15.9,7.2,25.15,8.72Z"/>
    <path class="cls-18" d="M351.03,215.45c8.76,3.03,17.96,6.11,24.29,12.65-.87-1.41-2.66-2.24-4.36-2.02,1.5,1.69,2.99,3.39,4.49,5.08-10.04-9.07-23.72-13.18-36.21-18.81-4.13-1.86-10.59-5.04-11.35-9.74,6.83,6.18,14.32,9.78,23.13,12.83Z"/>
    <path class="cls-18" d="M348.86,219.91c8.41,3.82,17.26,7.72,22.91,14.82-.73-1.48-2.42-2.47-4.14-2.41,1.32,1.82,2.64,3.65,3.96,5.47-9.09-9.95-22.29-15.29-34.16-22.04-3.93-2.23-10.04-5.98-10.33-10.74,6.19,6.78,13.28,11.04,21.74,14.89Z"/>
    <path class="cls-18" d="M344.21,224.42c7.51,5.27,15.42,10.7,19.58,18.71-.43-1.59-1.9-2.87-3.59-3.11.94,2.03,1.88,4.07,2.82,6.1-6.98-11.43-18.88-19.06-29.21-27.83-3.42-2.9-8.68-7.69-8.04-12.43,4.75,7.78,10.87,13.26,18.43,18.57Z"/>
    <path class="cls-18" d="M341.18,228.29c6.65,6.25,14.34,12,17.74,20.34-.28-1.62-1.62-3.02-3.28-3.41.75,2.11,1.49,4.22,2.24,6.33-5.88-12-34.38-38.69-33.3-43.36,4,8.17,6.41,10.53,16.6,20.1Z"/>
  </g>
  <path class="cls-10" d="M126.09,258.26c2.73,6.53,5.5,13.38,10.83,17.99-1.13-.62-1.84-1.95-1.75-3.23,1.37,1.09,2.75,2.17,4.12,3.26-7.44-7.34-11.21-17.54-16.1-26.82-1.62-3.07-4.35-7.86-8.01-8.31,5.06,4.99,8.17,10.55,10.91,17.11Z"/>
  <path class="cls-10" d="M123.97,263.87c2.08,6.76,4.18,13.85,9.03,18.96-1.06-.73-1.64-2.12-1.42-3.39,1.26,1.21,2.52,2.43,3.78,3.64-6.69-8.03-9.45-18.55-13.42-28.25-1.31-3.21-3.57-8.24-7.17-9.05,4.56,5.46,7.11,11.29,9.2,18.09Z"/>
  <path class="cls-10" d="M122.95,272.44c1.41,6.93,2.81,14.19,7.15,19.74-.98-.83-1.43-2.27-1.09-3.51,1.14,1.33,2.27,2.66,3.41,3.99-5.88-8.64-7.61-19.38-10.62-29.42-1-3.32-2.75-8.55-6.26-9.7,4,5.88,5.98,11.93,7.4,18.9Z"/>
  <path class="cls-10" d="M151.15,265.36c6.57,7.36,20.93,19.84,28.97,24.12-1.49-.47-2.99-1.92-3.65-3.54,2.01.98,4.02,1.95,6.04,2.93-11.76-7.1-20.37-14.67-30.73-24.85-3.43-3.37-17.3-23.12-26.14-29.86,4.85,6.85,18.9,23.79,25.51,31.2Z"/>
  <path class="cls-10" d="M150.57,259.97c5.19,5.71,16.67,15.26,23.21,18.41-1.23-.32-2.42-1.44-2.91-2.73,1.64.71,3.28,1.42,4.92,2.13-9.53-5.29-16.41-11.09-24.64-18.94-2.73-2.6-13.51-18.07-20.62-23.18,3.78,5.36,14.82,18.55,20.04,24.3Z"/>
  <path class="cls-10" d="M152.5,257.5c4.09,4.26,13.48,11.09,19.07,13.05-1.08-.14-2.04-.95-2.34-1.99,1.41.42,2.82.85,4.23,1.27-8.08-3.44-13.7-7.59-20.32-13.34-2.19-1.9-10.31-13.8-16.21-17.35,2.85,4.12,11.45,14.07,15.57,18.36Z"/>
  <path class="cls-10" d="M154.28,255.28c2.87,2.83,9.93,7.02,14.49,7.86-.92.02-1.62-.5-1.72-1.27,1.16.16,2.32.32,3.48.48-6.48-1.7-10.69-4.26-15.53-7.93-1.6-1.22-6.73-9.51-11.29-11.57,1.81,2.87,7.67,9.58,10.56,12.43Z"/>
  <path class="cls-10" d="M156.54,254.53c2.04,1.93,7.16,4.68,10.53,5.12-.69.05-1.19-.3-1.23-.85.86.07,1.72.14,2.58.21-4.78-.98-7.83-2.67-11.3-5.13-1.15-.82-4.67-6.61-8-7.91,1.24,2,5.37,6.62,7.42,8.57Z"/>
  <path class="cls-10" d="M159.37,254.08c1.28.95,4.87,1.92,7.46,1.63-.55.15-.89,0-.83-.36.67-.1,1.34-.2,2.01-.3-3.62.16-5.75-.45-8.08-1.51-.77-.35-2.56-3.64-4.98-3.95.64,1.13,3.12,3.53,4.41,4.49Z"/>
  <path class="cls-10" d="M128.96,255.16c3.41,6.19,6.91,12.71,12.7,16.7-1.18-.49-2.04-1.73-2.08-3.02,1.48.93,2.96,1.85,4.44,2.78-8.18-6.47-13.03-16.21-18.89-24.9-1.94-2.87-5.17-7.33-8.85-7.37,5.57,4.41,9.25,9.59,12.69,15.82Z"/>
  <path class="cls-10" d="M131.34,252.52c3.93,5.87,7.98,12.06,14.08,15.52-1.22-.39-2.18-1.55-2.33-2.83,1.55.79,3.1,1.58,4.66,2.38-8.69-5.73-14.36-15.01-20.94-23.15-2.18-2.69-5.78-6.85-9.45-6.57,5.92,3.9,10.03,8.74,13.99,14.65Z"/>
  <g>
    <path class="cls-10" d="M151.2,161.1c4.88-3.9,9.94-8.03,16.31-9.58-1.21.07-2.34.8-2.76,1.79,1.6-.32,3.21-.65,4.81-.97-9.26,2.84-16.47,9.12-24.28,14.3-2.59,1.72-6.8,4.32-10.13,3.36,6.3-1.93,11.13-4.97,16.05-8.9Z"/>
    <path class="cls-10" d="M148.6,165.43c4.24-3.02,8.66-6.24,13.47-6.89-.87-.09-1.82.45-2.31,1.33,1.2-.1,2.4-.2,3.59-.3-7.11,1.49-13.49,6.43-20.06,10.29-2.18,1.27-5.68,3.17-7.84,1.86,4.84-1.01,8.87-3.24,13.14-6.28Z"/>
    <path class="cls-10" d="M147.62,169.04c3.93-1.95,8.01-4.03,12.31-4.02-.76-.17-1.63.16-2.12.8,1.07.05,2.13.1,3.2.15-6.38.41-12.3,3.66-18.34,6.01-2,.78-5.21,1.91-7.04.63,4.34-.28,8.04-1.62,11.99-3.58Z"/>
    <path class="cls-10" d="M146.05,171.53c3.55-1.34,7.26-2.78,10.93-2.39-.63-.21-1.41,0-1.9.51.9.14,1.81.28,2.71.41-5.49-.21-10.88,2.08-16.28,3.58-1.79.5-4.64,1.19-6.08-.08,3.74.14,7.03-.69,10.61-2.03Z"/>
    <path class="cls-10" d="M144.71,173.62c3.15-.77,6.44-1.61,9.59-.92-.54-.24-1.22-.14-1.67.24.78.2,1.55.41,2.33.61-4.74-.72-9.53.66-14.29,1.38-1.57.24-4.09.54-5.25-.66,3.23.49,6.12.12,9.29-.65Z"/>
    <path class="cls-10" d="M144.47,175.65c3.23-.31,6.61-.66,9.61.48-.49-.31-1.18-.32-1.68,0,.73.31,1.47.63,2.2.94-4.56-1.39-9.51-.72-14.32-.69-1.59,0-4.12-.06-5.08-1.42,3.11.95,6.02,1,9.27.7Z"/>
    <path class="cls-10" d="M143.97,176.99c3.24-.06,6.63-.16,9.53,1.2-.46-.35-1.15-.41-1.68-.13.7.37,1.41.74,2.11,1.11-4.43-1.74-9.41-1.44-14.2-1.77-1.59-.11-4.09-.37-4.95-1.8,3.02,1.18,5.92,1.46,9.18,1.4Z"/>
    <path class="cls-10" d="M143.21,179.11c3.19.52,6.53,1.04,9.11,2.9-.39-.43-1.05-.61-1.62-.43.62.49,1.24.98,1.86,1.47-4.01-2.51-8.95-3.11-13.58-4.3-1.53-.39-3.94-1.1-4.5-2.66,2.73,1.71,5.52,2.5,8.73,3.03Z"/>
    <path class="cls-10" d="M144.97,182.15c4.08,1.26,8.36,2.53,11.25,5.39-.39-.62-1.22-.97-2.02-.85.68.74,1.36,1.49,2.05,2.23-4.6-3.95-10.98-5.63-16.78-8.01-1.92-.79-4.91-2.13-5.21-4.24,3.13,2.69,6.61,4.22,10.71,5.48Z"/>
    <path class="cls-10" d="M145.6,185.47c4.48,2.05,9.19,4.14,12.21,7.94-.39-.79-1.29-1.32-2.2-1.29.7.98,1.41,1.95,2.11,2.93-4.85-5.32-11.88-8.19-18.2-11.8-2.09-1.2-5.35-3.2-5.5-5.75,3.3,3.63,7.08,5.91,11.58,7.97Z"/>
    <path class="cls-10" d="M144.82,187.97c4.6,2.87,9.45,5.82,11.95,10.24-.25-.88-1.15-1.58-2.19-1.7.56,1.12,1.13,2.25,1.69,3.37-4.21-6.3-11.51-10.44-17.83-15.23-2.09-1.59-5.3-4.2-4.86-6.85,2.87,4.29,6.61,7.28,11.24,10.17Z"/>
    <path class="cls-10" d="M141.63,190.08c3.41,3.57,7.35,6.86,9.11,11.6-.15-.92-.84-1.72-1.68-1.95.39,1.2.78,2.4,1.16,3.6-3.04-6.83-17.65-22.06-17.12-24.7,2.07,4.65,3.3,5.99,8.53,11.46Z"/>
  </g>
  <path class="cls-19" d="M89.24,195.7c18.9,3.53,34.06,17.11,50.83,26.52,9.66,5.42,20.01,9.52,30.44,13.23,8.4,2.99,16.91,5.75,25.67,7.48,11.36,2.24,22.98,2.71,34.54,3.17,35.61,1.43,71.46,2.85,106.76-2.06"/>
  <path class="cls-19" d="M87.02,201.56c5.31,2.2,10.62,4.41,15.93,6.61,4.35,1.8,8.73,3.62,12.67,6.2,2.63,1.72,5.04,3.76,7.52,5.71,12.18,9.58,26.08,16.96,40.83,21.7,5.4,1.73,10.9,3.11,16.41,4.46,11.4,2.8,22.83,5.48,34.29,8.05,6.11,1.37,12.24,2.71,18.47,3.38,10.67,1.16,21.44.35,32.14-.46"/>
  <path class="cls-19" d="M79.67,204.09c17.76,5.83,32.14,18.87,48.83,27.3,5.82,2.94,11.92,5.31,17.78,8.18,8.31,4.06,16.16,9.11,24.77,12.5,6.34,2.5,13.01,4.05,19.65,5.6,7.28,1.7,14.55,3.39,21.83,5.09,6.92,1.61,13.86,3.23,20.92,3.95,9.64.99,19.36.3,29.03-.38"/>
  <path class="cls-8" d="M294.62,278.65c.12,3.32-1.84,5.39-6.19,5.91-4.47.54-5.27-.72-5.58-4.22s1.64-6.19,6.13-6.58c4.49-.39,5.51,1.38,5.64,4.89Z"/>
  <path class="cls-6" d="M300.31,278.15c.23,6.52-3.61,10.59-12.16,11.62-8.79,1.06-10.36-1.42-10.96-8.3-.6-6.88,3.23-12.17,12.05-12.93,8.82-.76,10.82,2.71,11.07,9.61Z"/>
  <path class="cls-8" d="M312.71,276.88c.52,13.35-6.89,21.65-23.45,23.68-17.02,2.09-20.1-3.01-21.31-17.1-1.22-14.09,6.13-24.89,23.22-26.36s21,5.65,21.55,19.78Z"/>
</svg>